<svg xmlns="http://www.w3.org/2000/svg" width="512" height="512"><path fill="#F06056" d="M341.5 230.35h34.22v239.43h-34.2z"/><path fill="#fff" d="M307.3 503.98H102.1c-18.9 0-34.2-15.3-34.2-34.2V110.63c0-18.9 15.3-34.2 34.2-34.2h205.2c18.9 0 34.2 15.3 34.2 34.2v359.15c0 18.9-15.3 34.2-34.2 34.2z"/><path fill="#C7CFE2" d="M208.97 332.96h-8.55c-9.45 0-17.1-7.65-17.1-17.1 0-9.45 7.65-17.1 17.1-17.1h8.55c9.44 0 17.1 7.65 17.1 17.1 0 9.44-7.66 17.1-17.1 17.1zm0 68.4h-8.55c-9.45 0-17.1-7.65-17.1-17.1 0-9.44 7.65-17.1 17.1-17.1h8.55c9.44 0 17.1 7.66 17.1 17.1 0 9.45-7.66 17.1-17.1 17.1z"/><path fill="#FFDC64" d="M208.97 469.78h-8.55c-9.45 0-17.1-7.66-17.1-17.1 0-9.45 7.65-17.1 17.1-17.1h8.55c9.44 0 17.1 7.65 17.1 17.1 0 9.44-7.66 17.1-17.1 17.1z"/><path fill="#C7CFE2" d="M285.93 332.96h-8.55c-9.45 0-17.1-7.65-17.1-17.1 0-9.45 7.65-17.1 17.1-17.1h8.55c9.44 0 17.1 7.65 17.1 17.1 0 9.44-7.65 17.1-17.1 17.1zm0 68.4h-8.55c-9.45 0-17.1-7.65-17.1-17.1 0-9.44 7.65-17.1 17.1-17.1h8.55c9.44 0 17.1 7.66 17.1 17.1 0 9.45-7.65 17.1-17.1 17.1z"/><path fill="#C8FF82" d="M285.93 469.78h-8.55c-9.45 0-17.1-7.66-17.1-17.1 0-9.45 7.65-17.1 17.1-17.1h8.55c9.44 0 17.1 7.65 17.1 17.1 0 9.44-7.65 17.1-17.1 17.1z"/><path fill="#C7CFE2" d="M132 332.96h-8.54c-9.45 0-17.1-7.65-17.1-17.1 0-9.45 7.65-17.1 17.1-17.1H132c9.45 0 17.1 7.65 17.1 17.1 0 9.44-7.65 17.1-17.1 17.1zm0 68.4h-8.54c-9.45 0-17.1-7.65-17.1-17.1 0-9.44 7.65-17.1 17.1-17.1H132c9.45 0 17.1 7.66 17.1 17.1 0 9.45-7.65 17.1-17.1 17.1z"/><path fill="#FF507D" d="M132 469.78h-8.54c-9.45 0-17.1-7.66-17.1-17.1 0-9.45 7.65-17.1 17.1-17.1H132c9.45 0 17.1 7.65 17.1 17.1 0 9.44-7.65 17.1-17.1 17.1z"/><path fill="#5AB5E0" d="M298.76 170.5H110.63c-4.72 0-8.55 3.82-8.55 8.54V256c0 4.72 3.83 8.55 8.55 8.55h188.13c4.72 0 8.55-3.83 8.55-8.55v-76.96c0-4.72-3.8-8.55-8.53-8.55z"/><path fill="#E4EAF8" d="M275.24 16.57l-23.52-8.55-23.5 8.55-23.53-8.55-23.53 8.55-23.52-8.55-23.5 8.55-23.53-8.55v128.26h188.13V8.02z"/><path fill="#193651" d="M230.35 110.1h34.2c4.43 0 8.02-3.6 8.02-8.02 0-4.43-3.6-8.02-8.02-8.02h-34.2c-4.43 0-8.02 3.6-8.02 8.02 0 4.43 3.6 8.02 8.02 8.02zm-85.5 0h51.3c4.42 0 8-3.6 8-8.02 0-4.43-3.6-8.02-8-8.02h-51.3c-4.44 0-8.03 3.6-8.03 8.02s3.6 8.02 8.02 8.02zm102.6-34.2h17.1c4.43 0 8.02-3.6 8.02-8.03 0-4.42-3.6-8-8.02-8h-17.1c-4.43 0-8.02 3.58-8.02 8 0 4.43 3.6 8.02 8.02 8.02zm-51.3 0h17.1c4.42 0 8-3.6 8-8.03 0-4.42-3.58-8-8-8h-17.1c-4.43 0-8.02 3.58-8.02 8 0 4.43 3.6 8.02 8.02 8.02zm-51.3 0h17.1c4.42 0 8-3.6 8-8.03 0-4.42-3.6-8-8-8h-17.1c-4.44 0-8.03 3.58-8.03 8 0 4.43 3.6 8.02 8.02 8.02zm290.72 146.43h-86.04v-111.7c0-23.28-18.94-42.22-42.22-42.22h-.52V8.04c0-2.62-1.27-5.07-3.4-6.57S298.46-.4 296 .48l-20.78 7.56L254.46.48c-1.77-.64-3.7-.64-5.48 0L228.2 8.04 207.44.48c-1.77-.64-3.7-.64-5.48 0L181.2 8.04 160.4.48c-1.77-.64-3.7-.64-5.48 0l-20.77 7.56L113.37.48c-2.46-.9-5.2-.53-7.34.97-2.14 1.5-3.42 3.95-3.42 6.57v60.4h-.5c-23.3 0-42.23 18.93-42.23 42.2V469.8c0 23.28 18.94 42.22 42.22 42.22h205.2c20.55 0 37.7-14.75 41.46-34.2h86.82c9.13 0 16.56-7.44 16.56-16.57V238.9c0-9.14-7.43-16.57-16.57-16.57zm-67.87 16.03v223.4h-18.17v-223.4h18.17zM118.65 19.46l12.76 4.64c1.8.64 3.73.64 5.5 0l20.77-7.55 20.78 7.55c1.77.64 3.7.64 5.48 0l20.77-7.55 20.77 7.55c1.77.64 3.7.64 5.48 0l20.77-7.55 20.78 7.55c1.77.64 3.7.64 5.48 0l12.76-4.64v108.8h-172.1V19.46zm188.66 476.5H102.1c-14.44 0-26.2-11.74-26.2-26.18V110.63c0-14.44 11.76-26.2 26.2-26.2h.53v43.84h-.52c-4.42 0-8 3.6-8 8s3.6 8.03 8 8.03h205.2c4.43 0 8.02-3.6 8.02-8.02s-3.58-8-8-8h-.55V84.43h.54c14.46 0 26.2 11.75 26.2 26.2v359.14c0 14.44-11.74 26.2-26.2 26.2zm128.8-34.73c0 .3-.22.53-.52.53h-17.63v-163c0-4.43-3.6-8.02-8.02-8.02-4.43 0-8.02 3.6-8.02 8v163.02h-18.16v-223.4h18.17v26.2c0 4.4 3.6 8 8.03 8s8.02-3.58 8.02-8v-26.2h17.63c.3 0 .54.24.54.54v222.33zM298.77 162.47H110.63c-9.13 0-16.57 7.43-16.57 16.57V256c0 9.14 7.44 16.57 16.57 16.57h188.13c9.13 0 16.56-7.43 16.56-16.57v-76.96c0-9.14-7.43-16.57-16.56-16.57zm.53 93.53c0 .3-.26.53-.55.53H110.63c-.3 0-.53-.24-.53-.53v-76.96c0-.3.24-.53.53-.53h188.13c.3 0 .53.26.53.55V256z"/><path fill="#31A2D8" d="M106.36 298.76h42.75v34.2h-42.73zm76.96 0h42.75v34.2h-42.75zm76.96 0h42.75v34.2h-42.75zm-154.46 68.4h42.76v34.2h-42.76zm76.96 0h42.76v34.2h-42.76zm76.96 0h42.76v34.2h-42.76zm-153.38 68.4h42.75v34.2h-42.73zm76.96 0h42.75v34.2h-42.75zm76.96 0h42.75v34.2h-42.75z"/></svg>